# Object Export From Tinkercad Server 2015

mtllib beehive.mtl

o obj_0
v -40 		-49 		30.05
v -40 		-49 		30.06
v -40 		-49 		25.06
v -40 		-49 		25.05
v 40 		-49 		15.06
v -10 		-49 		15.06
v -10 		-49 		15.05
v 40 		-49 		15.05
v 40 		-49 		10.06
v -10 		-49 		10.06
v -10 		-49 		10.05
v 40 		-49 		10.05
v 40 		-49 		5.06
v -10 		-49 		5.06
v -10 		-49 		5.05
v 40 		-49 		5.05
v -40 		-49 		15.05
v -35 		-49 		15.05
v -35 		-49 		15.06
v -40 		-49 		15.06
v -40 		-49 		10.05
v -35 		-49 		10.05
v -35 		-49 		10.06
v -40 		-49 		10.06
v -35 		-49 		5.05
v -35 		-49 		5.06
v -40 		-49 		5.06
v -40 		-49 		5.05
v 40 		-49 		0.06
v -10 		-49 		0.06
v -10 		-49 		0.05
v 40 		-49 		0.05
v -35 		-49 		0.05
v -35 		-49 		0.06
v -40 		-49 		0.06
v -40 		-49 		0.05
v -40 		31 		80.04
v 40 		31 		80.04
v 40 		31 		75.05
v -40 		31 		75.05
v -40 		31 		75.04
v 40 		31 		75.04
v 40 		31 		70.05
v -40 		31 		70.05
v -40 		31 		70.04
v 40 		31 		70.04
v -40 		31 		60.03
v 40 		31 		60.03
v 40 		31 		45.06
v -40 		31 		45.06
v 40 		31 		60.05
v -40 		31 		60.05
v -40 		31 		45.05
v 40 		31 		45.05
v 40 		31 		35.06
v -40 		31 		35.06
v -40 		31 		35.05
v 40 		31 		35.05
v 40 		31 		30.06
v -40 		31 		30.06
v -40 		31 		30.05
v 40 		31 		30.05
v 40 		31 		25.06
v -40 		31 		25.06
v -40 		31 		25.05
v 40 		31 		25.05
v 40 		31 		15.06
v -40 		31 		15.06
v -40 		31 		15.05
v 40 		31 		15.05
v 40 		31 		10.06
v -40 		31 		10.06
v -40 		31 		10.05
v 40 		31 		10.05
v 40 		31 		5.06
v -40 		31 		5.06
v -40 		31 		5.05
v 40 		31 		5.05
v 40 		31 		0.06
v -40 		31 		0.06
v 40 		31 		80.05
v -40 		31 		80.05
v 40 		31 		0.05
v -40 		31 		0.05
v 20 		11 		81.05
v 20 		11 		80.05
v 20 		-29 		80.05
v 20 		-29 		81.05
v 25 		16 		81.05
v 25 		16 		80.05
v -20 		-29 		80.05
v -20 		-29 		81.05
v -20 		11 		80.05
v -20 		11 		81.05
v -25 		16 		81.05
v -25 		16 		80.05
v -25 		-34 		80.05
v -25 		-34 		81.05
v -35 		-44 		81.05
v -35 		-44 		80.05
v -35 		26 		80.05
v -35 		26 		81.05
v 35 		26 		80.05
v 35 		26 		81.05
v 35 		-44 		80.05
v 35 		-44 		81.05
v 40 		31 		81.05
v 25 		-34 		80.05
v 10 		1 		80.05
v 10 		-19 		80.05
v -10 		-19 		80.05
v -10 		1 		80.05
v 5 		-14 		80.05
v 5 		-4 		80.05
v -5 		-4 		80.05
v -5 		-14 		80.05
v -40 		-49 		0
v -40 		31 		0
v 5 		-14 		0
v 5 		-4 		0
v 10 		-19 		0
v -5 		-14 		0
v -10 		-19 		0
v -5 		-4 		0
v -10 		1 		0
v 10 		1 		0
v 20 		11 		0
v -20 		11 		0
v 20 		-29 		0
v 25 		16 		0
v 25 		-34 		0
v -20 		-29 		0
v -25 		-34 		0
v -25 		16 		0
v -35 		26 		0
v -35 		-44 		0
v 35 		26 		0
v 35 		-44 		0
v 40 		31 		0
v 40 		-49 		0
v -15 		-49 		0.05
v -30 		-49 		0.05
v 25 		16 		0.05
v 25 		-34 		0.05
v 10 		-19 		0.05
v 10 		1 		0.05
v -10 		-19 		0.05
v -10 		1 		0.05
v 5 		-4 		0.05
v 5 		-14 		0.05
v -5 		-14 		0.05
v -5 		-4 		0.05
v 20 		11 		0.05
v -20 		11 		0.05
v -41 		32 		40.05
v -41 		32 		45.05
v -41 		32 		25.05
v -41 		-50 		25.05
v -41 		-50 		15.06
v -41 		32 		15.06
v -41 		-50 		20.05
v -41 		32 		20.05
v -41 		32 		15.05
v -41 		-50 		15.05
v -41 		-50 		10.06
v -41 		32 		10.06
v -41 		32 		10.05
v -41 		-50 		10.05
v -41 		-50 		5.06
v -41 		32 		5.06
v -41 		32 		5.05
v -41 		-50 		5.05
v -41 		-50 		0.06
v -41 		32 		0.06
v -40 		-49 		80.05
v -40 		-49 		81.05
v -40 		31 		81.05
v -40 		-49 		80.04
v -40 		-49 		75.04
v -40 		-49 		75.05
v -40 		-49 		70.04
v -40 		-49 		70.05
v -40 		-49 		60.03
v -40 		-49 		60.05
v -40 		-49 		45.05
v -40 		-49 		45.06
v -40 		-49 		35.05
v -40 		-49 		35.06
v 5 		-4 		81.05
v 5 		-14 		81.05
v -5 		-14 		81.05
v 10 		-19 		81.05
v -10 		-19 		81.05
v -5 		-4 		81.05
v 10 		1 		81.05
v -10 		1 		81.05
v 25 		-34 		81.05
v 40 		-49 		81.05
v 40 		-49 		80.05
v 20 		-29 		0.05
v -20 		-29 		0.05
v -25 		16 		0.05
v -25 		-34 		0.05
v -35 		-44 		0.05
v -35 		26 		0.05
v 35 		26 		0.05
v 41 		-50 		0.06
v 41 		-50 		5.05
v 41 		32 		5.05
v 35 		-44 		0.05
v 41 		32 		0.06
v -15 		-50.5 		0.05
v -30 		-50.5 		0.05
v 40 		-49 		80.04
v -10 		-50.5 		0.05
v -35 		-50.5 		0.05
v 40 		-49 		75.05
v 40 		-49 		75.04
v 40 		-49 		70.05
v 40 		-49 		70.04
v 40 		-49 		60.05
v 40 		-49 		60.03
v 40 		-49 		45.06
v 40 		-49 		45.05
v 40 		-49 		35.06
v 40 		-49 		35.05
v 40 		-49 		30.06
v 40 		-49 		30.05
v 40 		-49 		25.06
v 40 		-49 		25.05
v -41 		32 		80.04
v -41 		32 		75.05
v -41 		-50 		75.05
v -41 		-50 		80.04
v -41 		32 		75.04
v -41 		32 		70.05
v -41 		-50 		70.05
v -41 		-50 		75.04
v -41 		32 		70.04
v -41 		32 		65.05
v -41 		-50 		65.05
v -41 		-50 		70.04
v -41 		32 		60.03
v -41 		-50 		60.03
v -41 		32 		50.05
v -41 		-50 		50.05
v -41 		32 		45.06
v -41 		-50 		45.06
v -41 		32 		60.05
v -41 		-50 		60.05
v -41 		32 		35.06
v -41 		-50 		35.06
v -41 		-50 		40.05
v -41 		32 		35.05
v -41 		32 		30.06
v -41 		-50 		30.06
v -41 		-50 		35.05
v -41 		32 		30.05
v -41 		32 		25.06
v -41 		-50 		25.06
v -41 		-50 		30.05
v -41 		-50 		45.05
v 10 		-50 		65.05
v 15 		-50 		65.05
v 30 		-50 		65.05
v 35 		-50 		65.05
v 10 		-50.5 		65.05
v 15 		-50.5 		65.05
v 30 		-50.5 		65.05
v 35 		-50.5 		65.05
v 35 		-49 		60.03
v 35 		-50 		60.03
v 35 		-50 		50.05
v 35 		-50 		45.06
v 35 		-49 		45.06
v 35 		-49 		45.05
v 35 		-50 		45.05
v 35 		-50 		35.06
v 35 		-49 		35.06
v 35 		-50 		40.05
v 35 		-49 		35.05
v 35 		-50 		35.05
v 35 		-51 		35.05
v 35 		-51 		40.05
v 35 		-50.5 		40.05
v 35 		-49 		60.05
v 35 		-50 		60.05
v 15 		-51 		60.05
v 15 		-51 		40.05
v 30 		-51 		40.05
v 30 		-51 		60.05
v -10 		-50 		15.06
v -10 		-50 		20.05
v -10 		-50 		15.05
v 15 		-50.5 		60.05
v 15 		-50.5 		40.05
v -10 		-50 		10.06
v 10 		-50 		60.03
v 10 		-49 		60.03
v -10 		-50 		10.05
v -10 		-50 		5.06
v 10 		-50 		50.05
v 10 		-50 		45.06
v 10 		-49 		45.06
v 10 		-50 		45.05
v 10 		-49 		45.05
v 10 		-50 		35.06
v 10 		-49 		35.06
v -10 		-50 		5.05
v 10 		-50 		40.05
v -30 		-50.5 		20.05
v 10 		-50 		35.05
v 10 		-49 		35.05
v -15 		-50.5 		20.05
v -35 		-50 		15.06
v -35 		-50 		20.05
v -35 		-50 		15.05
v -35 		-50 		10.06
v -35 		-50 		10.05
v -35 		-50 		5.06
v 10 		-51 		35.05
v 10 		-51 		40.05
v 10 		-50.5 		40.05
v 10 		-50 		60.05
v 10 		-49 		60.05
v -35 		-50 		5.05
v -15 		-50 		20.05
v -30 		-50 		20.05
v -10 		-50.5 		25.05
v -10 		-50 		25.05
v -15 		-50.5 		25.05
v -15 		-50 		25.05
v -30 		-50.5 		25.05
v -30 		-50 		25.05
v -35 		-50.5 		25.05
v -35 		-50 		25.05
v -10 		-50 		0.06
v -35 		-50 		0.06
v 41 		-50 		80.04
v 41 		-50 		75.05
v 41 		32 		75.05
v 41 		32 		80.04
v 41 		-50 		75.04
v 41 		-50 		70.05
v 41 		32 		70.05
v 41 		32 		75.04
v 41 		-50 		70.04
v 41 		-50 		65.05
v 41 		32 		65.05
v 41 		32 		70.04
v 41 		-50 		60.03
v 41 		32 		60.03
v 41 		-50 		50.05
v 41 		32 		50.05
v 41 		-50 		45.06
v 41 		32 		45.06
v 41 		-50 		60.05
v 41 		32 		60.05
v 41 		-50 		40.05
v 41 		-50 		35.06
v 41 		32 		35.06
v 41 		32 		40.05
v 41 		-50 		35.05
v 41 		-50 		30.06
v 41 		32 		30.06
v 41 		32 		35.05
v 41 		-50 		30.05
v 41 		-50 		25.06
v 41 		32 		25.06
v 41 		32 		30.05
v 41 		-50 		45.05
v 41 		32 		45.05
v 41 		-50 		20.05
v 41 		-50 		15.06
v 41 		32 		15.06
v 41 		32 		20.05
v 41 		-50 		15.05
v 41 		-50 		10.06
v 41 		32 		10.06
v 41 		32 		15.05
v 41 		-50 		10.05
v 41 		-50 		5.06
v 41 		32 		5.06
v 41 		32 		10.05
v 41 		-50 		25.05
v 41 		32 		25.05
v 30 		-50.5 		60.05
v 30 		-50.5 		40.05
v 30 		-50 		60.05
v 15 		-50 		60.05
# 390 vertices

g group_0_2829873

usemtl color_2829873
s 0

f 212 	213 	142
f 212 	142 	141
f 288 	289 	290
f 288 	290 	291
f 288 	295 	296
f 288 	296 	289
f 327 	328 	311
f 327 	311 	314
f 212 	314 	213
f 311 	213 	314
f 387 	291 	290
f 387 	290 	388
f 389 	390 	295
f 288 	291 	295
f 291 	387 	295
f 389 	295 	387
# 16 faces

g group_0_6306067

usemtl color_6306067
s 0

f 51 	52 	249
f 156 	53 	54
f 157 	65 	66
f 171 	77 	78
f 79 	80 	211
f 85 	86 	87
f 85 	87 	88
f 91 	92 	87
f 88 	87 	92
f 92 	91 	93
f 92 	93 	94
f 95 	96 	97
f 95 	97 	98
f 99 	100 	101
f 99 	101 	102
f 102 	103 	104
f 103 	102 	101
f 104 	103 	105
f 104 	105 	106
f 82 	177 	81
f 107 	81 	177
f 99 	106 	100
f 105 	100 	106
f 140 	31 	117
f 126 	119 	120
f 122 	119 	123
f 121 	123 	119
f 121 	119 	126
f 124 	122 	123
f 124 	125 	120
f 123 	125 	124
f 126 	120 	125
f 130 	127 	128
f 131 	129 	127
f 131 	127 	130
f 132 	129 	131
f 134 	128 	133
f 130 	128 	134
f 128 	132 	133
f 131 	133 	132
f 117 	135 	136
f 137 	135 	139
f 118 	139 	135
f 117 	118 	135
f 140 	138 	137
f 140 	137 	139
f 140 	117 	136
f 136 	138 	140
f 141 	117 	31
f 142 	117 	141
f 33 	117 	142
f 36 	117 	33
f 32 	31 	140
f 143 	131 	130
f 144 	131 	143
f 144 	203 	131
f 126 	145 	121
f 145 	126 	146
f 123 	147 	125
f 148 	125 	147
f 123 	121 	145
f 149 	120 	119
f 149 	119 	150
f 122 	151 	150
f 122 	150 	119
f 151 	122 	124
f 151 	124 	152
f 145 	147 	123
f 120 	149 	152
f 120 	152 	124
f 148 	146 	126
f 148 	126 	125
f 127 	153 	154
f 127 	154 	128
f 158 	4 	157
f 4 	65 	157
f 158 	161 	316
f 172 	28 	171
f 28 	77 	171
f 174 	80 	173
f 211 	80 	174
f 173 	80 	35
f 171 	211 	174
f 175 	176 	82
f 177 	82 	176
f 117 	36 	118
f 84 	118 	36
f 176 	175 	199
f 192 	189 	190
f 191 	193 	190
f 192 	190 	193
f 194 	196 	191
f 193 	191 	196
f 195 	196 	194
f 195 	194 	189
f 195 	189 	192
f 85 	89 	94
f 89 	95 	94
f 88 	197 	85
f 89 	85 	197
f 98 	197 	88
f 98 	88 	92
f 98 	92 	94
f 98 	94 	95
f 99 	102 	176
f 176 	102 	177
f 177 	102 	104
f 107 	177 	104
f 106 	198 	104
f 107 	104 	198
f 99 	176 	106
f 176 	198 	106
f 176 	199 	198
f 197 	90 	89
f 90 	197 	108
f 98 	97 	108
f 98 	108 	197
f 109 	192 	110
f 192 	109 	195
f 111 	193 	112
f 196 	112 	193
f 193 	110 	192
f 189 	114 	113
f 189 	113 	190
f 153 	127 	129
f 153 	129 	200
f 132 	201 	129
f 190 	113 	116
f 190 	116 	191
f 200 	129 	201
f 191 	116 	115
f 191 	115 	194
f 110 	193 	111
f 201 	132 	128
f 201 	128 	154
f 202 	134 	133
f 202 	133 	203
f 194 	115 	114
f 194 	114 	189
f 203 	133 	131
f 195 	109 	112
f 195 	112 	196
f 130 	134 	143
f 202 	143 	134
f 204 	136 	135
f 204 	135 	205
f 94 	93 	86
f 94 	86 	85
f 205 	135 	206
f 89 	90 	96
f 89 	96 	95
f 137 	206 	135
f 83 	139 	84
f 118 	84 	139
f 206 	137 	138
f 206 	138 	210
f 209 	211 	171
f 198 	199 	81
f 198 	81 	107
f 210 	138 	204
f 136 	204 	138
f 139 	83 	140
f 32 	140 	83
f 215 	212 	141
f 215 	141 	31
f 213 	216 	33
f 213 	33 	142
f 240 	249 	250
f 240 	250 	241
f 253 	262 	155
f 156 	155 	262
f 157 	162 	161
f 157 	161 	158
f 171 	174 	173
f 171 	173 	172
f 267 	268 	264
f 267 	264 	263
f 269 	270 	266
f 269 	266 	265
f 224 	276 	277
f 249 	52 	250
f 250 	52 	184
f 281 	279 	282
f 279 	278 	282
f 283 	282 	278
f 278 	285 	283
f 280 	285 	278
f 284 	283 	285
f 305 	185 	262
f 271 	286 	272
f 286 	287 	272
f 262 	53 	156
f 185 	53 	262
f 273 	272 	270
f 272 	287 	270
f 274 	273 	285
f 276 	275 	277
f 275 	274 	277
f 285 	277 	274
f 270 	285 	273
f 285 	280 	277
f 230 	4 	330
f 289 	283 	290
f 7 	6 	294
f 6 	292 	294
f 292 	329 	294
f 293 	329 	292
f 305 	306 	185
f 11 	10 	300
f 10 	297 	300
f 215 	300 	297
f 294 	329 	297
f 15 	14 	309
f 14 	301 	309
f 301 	215 	309
f 215 	301 	300
f 308 	313 	307
f 313 	312 	307
f 321 	307 	312
f 321 	322 	323
f 310 	307 	323
f 321 	323 	307
f 19 	18 	315
f 18 	317 	315
f 317 	318 	335
f 315 	317 	335
f 325 	299 	324
f 299 	298 	324
f 298 	267 	324
f 23 	22 	318
f 22 	319 	318
f 216 	318 	319
f 267 	298 	302
f 216 	335 	318
f 26 	25 	320
f 25 	326 	320
f 216 	320 	326
f 304 	306 	303
f 306 	305 	303
f 323 	303 	305
f 320 	216 	319
f 303 	323 	302
f 267 	302 	323
f 323 	305 	310
f 215 	297 	329
f 329 	293 	330
f 314 	331 	332
f 314 	332 	327
f 215 	329 	314
f 331 	314 	329
f 333 	311 	328
f 333 	328 	334
f 336 	316 	335
f 316 	315 	335
f 335 	216 	311
f 335 	311 	333
f 283 	321 	312
f 373 	330 	293
f 334 	328 	327
f 334 	327 	332
f 158 	316 	336
f 16 	15 	309
f 16 	309 	208
f 25 	28 	326
f 172 	326 	28
f 30 	337 	31
f 215 	31 	337
f 34 	33 	338
f 216 	338 	33
f 30 	29 	337
f 207 	337 	29
f 338 	173 	35
f 338 	35 	34
f 215 	337 	309
f 215 	314 	212
f 326 	338 	216
f 311 	216 	213
f 207 	208 	337
f 309 	337 	208
f 338 	326 	173
f 172 	173 	326
f 262 	253 	310
f 262 	310 	305
f 348 	357 	358
f 348 	358 	349
f 371 	359 	372
f 372 	359 	362
f 385 	373 	376
f 385 	376 	386
f 208 	207 	211
f 208 	211 	209
f 357 	221 	51
f 249 	358 	51
f 357 	51 	358
f 266 	357 	348
f 249 	240 	358
f 349 	358 	240
f 277 	371 	224
f 372 	224 	371
f 372 	156 	54
f 224 	372 	54
f 359 	371 	280
f 277 	280 	371
f 155 	156 	362
f 372 	362 	156
f 283 	289 	321
f 322 	321 	289
f 386 	157 	66
f 386 	66 	230
f 386 	230 	385
f 330 	373 	385
f 386 	376 	162
f 386 	162 	157
f 209 	171 	78
f 209 	78 	16
f 209 	16 	208
f 207 	29 	79
f 207 	79 	211
f 289 	296 	323
f 289 	323 	322
f 296 	295 	323
f 267 	323 	295
f 283 	312 	282
f 290 	283 	284
f 284 	285 	388
f 284 	388 	290
f 270 	387 	285
f 388 	285 	387
f 286 	221 	287
f 357 	287 	221
f 324 	250 	184
f 324 	184 	325
f 270 	287 	266
f 268 	295 	390
f 268 	390 	264
f 267 	263 	324
f 267 	295 	268
f 387 	269 	265
f 387 	265 	389
f 269 	387 	270
f 357 	266 	287
f 264 	390 	389
f 264 	389 	265
f 324 	263 	250
f 241 	250 	263
f 331 	329 	330
f 331 	330 	332
f 335 	333 	334
f 335 	334 	336
f 330 	385 	230
f 334 	4 	336
f 332 	4 	334
f 330 	4 	332
f 158 	336 	4
# 354 faces

g group_0_9396532

usemtl color_9396532
s 0

f 167 	73 	74
f 75 	76 	383
f 168 	21 	167
f 21 	73 	167
f 170 	76 	169
f 383 	76 	170
f 169 	76 	27
f 167 	383 	170
f 167 	170 	169
f 167 	169 	168
f 12 	11 	300
f 301 	14 	13
f 22 	21 	319
f 168 	319 	21
f 320 	169 	27
f 320 	27 	26
f 320 	319 	169
f 168 	169 	319
f 381 	382 	383
f 381 	383 	384
f 384 	167 	74
f 384 	74 	12
f 300 	381 	12
f 384 	12 	381
f 382 	301 	13
f 382 	13 	75
f 382 	75 	383
f 382 	381 	301
f 300 	301 	381
f 384 	383 	167
# 30 faces

g group_0_9726530

usemtl color_9726530
s 0

f 163 	69 	70
f 71 	72 	379
f 164 	17 	163
f 17 	69 	163
f 166 	72 	165
f 379 	72 	166
f 165 	72 	24
f 163 	379 	166
f 163 	166 	165
f 163 	165 	164
f 8 	7 	294
f 297 	10 	9
f 18 	17 	317
f 164 	317 	17
f 318 	165 	24
f 318 	24 	23
f 318 	317 	165
f 164 	165 	317
f 377 	378 	379
f 377 	379 	380
f 380 	163 	70
f 380 	70 	8
f 294 	377 	8
f 380 	8 	377
f 378 	297 	9
f 378 	9 	71
f 378 	71 	379
f 378 	377 	297
f 294 	297 	377
f 380 	379 	163
# 30 faces

g group_0_11894839

usemtl color_11894839
s 0

f 67 	68 	160
f 159 	160 	68
f 159 	68 	20
f 161 	159 	316
f 162 	160 	159
f 162 	159 	161
f 292 	6 	5
f 293 	292 	373
f 315 	159 	20
f 315 	20 	19
f 316 	159 	315
f 373 	374 	375
f 373 	375 	376
f 374 	292 	5
f 374 	5 	67
f 160 	375 	67
f 374 	67 	375
f 373 	292 	374
f 160 	162 	375
f 376 	375 	162
# 20 faces

g group_0_14387479

usemtl color_14387479
s 0

f 258 	61 	62
f 63 	64 	369
f 258 	259 	260
f 258 	260 	261
f 261 	1 	258
f 1 	61 	258
f 369 	64 	259
f 260 	259 	64
f 260 	64 	3
f 1 	261 	228
f 367 	228 	261
f 3 	229 	260
f 368 	367 	260
f 258 	369 	259
f 367 	368 	369
f 367 	369 	370
f 370 	258 	62
f 370 	62 	228
f 370 	228 	367
f 368 	229 	63
f 368 	63 	369
f 370 	369 	258
f 368 	260 	229
f 261 	260 	367
# 24 faces

g group_0_15111960

usemtl color_15111960
s 0

f 254 	57 	58
f 59 	60 	365
f 254 	255 	256
f 254 	256 	257
f 226 	281 	282
f 257 	187 	254
f 187 	57 	254
f 255 	60 	256
f 365 	60 	255
f 256 	60 	2
f 254 	365 	255
f 313 	187 	312
f 257 	312 	187
f 257 	256 	312
f 227 	256 	2
f 363 	364 	365
f 363 	365 	366
f 366 	254 	58
f 366 	58 	226
f 282 	363 	226
f 366 	226 	363
f 364 	227 	59
f 364 	59 	365
f 282 	364 	363
f 366 	365 	254
f 364 	256 	227
f 282 	312 	364
f 256 	364 	312
# 28 faces

g group_0_15114264

usemtl color_15114264
s 0

f 55 	56 	361
f 155 	251 	252
f 155 	252 	253
f 278 	279 	225
f 251 	56 	252
f 361 	56 	251
f 56 	188 	252
f 253 	252 	310
f 155 	361 	251
f 307 	252 	188
f 307 	188 	308
f 310 	252 	307
f 359 	360 	361
f 362 	359 	361
f 360 	278 	225
f 360 	225 	55
f 360 	55 	361
f 280 	278 	360
f 280 	360 	359
f 362 	361 	155
# 20 faces

g group_0_15120408

usemtl color_15120408
s 0

f 49 	50 	247
f 49 	247 	356
f 354 	356 	247
f 245 	247 	248
f 245 	248 	246
f 274 	275 	223
f 248 	247 	50
f 248 	50 	186
f 354 	247 	245
f 303 	248 	186
f 303 	186 	304
f 246 	248 	303
f 246 	303 	302
f 353 	355 	356
f 353 	356 	354
f 355 	274 	223
f 355 	223 	49
f 355 	49 	356
f 273 	274 	355
f 273 	355 	353
# 20 faces

g group_0_16767232

usemtl color_16767232
s 0

f 239 	45 	46
f 243 	47 	48
f 239 	240 	241
f 239 	241 	242
f 243 	245 	246
f 243 	246 	244
f 220 	181 	242
f 264 	347 	263
f 265 	347 	264
f 266 	347 	265
f 222 	271 	272
f 242 	181 	239
f 181 	45 	239
f 241 	263 	242
f 244 	183 	243
f 298 	183 	244
f 183 	47 	243
f 352 	354 	243
f 354 	245 	243
f 298 	299 	183
f 244 	246 	298
f 302 	298 	246
f 347 	348 	349
f 347 	349 	350
f 351 	353 	352
f 353 	354 	352
f 350 	239 	46
f 350 	46 	220
f 242 	347 	220
f 350 	220 	347
f 348 	347 	266
f 242 	263 	347
f 350 	349 	240
f 350 	240 	239
f 352 	243 	48
f 352 	48 	222
f 272 	351 	222
f 352 	222 	351
f 351 	272 	353
f 353 	272 	273
# 40 faces

g group_0_16769335

usemtl color_16769335
s 0

f 235 	41 	42
f 43 	44 	345
f 235 	236 	237
f 235 	237 	238
f 218 	179 	238
f 237 	182 	219
f 238 	179 	235
f 179 	41 	235
f 345 	44 	236
f 237 	236 	44
f 237 	44 	182
f 235 	345 	236
f 343 	344 	345
f 343 	345 	346
f 346 	235 	42
f 346 	42 	218
f 238 	343 	218
f 346 	218 	343
f 344 	237 	219
f 344 	219 	43
f 344 	43 	345
f 238 	237 	344
f 238 	344 	343
f 346 	345 	235
# 24 faces

g group_0_16770912

usemtl color_16770912
s 0

f 231 	37 	38
f 39 	40 	341
f 231 	232 	233
f 231 	233 	234
f 214 	178 	234
f 233 	180 	217
f 234 	178 	231
f 178 	37 	231
f 341 	40 	232
f 233 	232 	40
f 233 	40 	180
f 231 	341 	232
f 339 	340 	341
f 339 	341 	342
f 342 	231 	38
f 342 	38 	214
f 234 	339 	214
f 342 	214 	339
f 340 	233 	217
f 340 	217 	39
f 340 	39 	341
f 234 	233 	340
f 234 	340 	339
f 342 	341 	231
# 24 faces

g group_0_16772223

usemtl color_16772223
s 0

f 5 	6 	7
f 5 	7 	8
f 9 	10 	11
f 9 	11 	12
f 13 	14 	15
f 13 	15 	16
f 17 	18 	19
f 17 	19 	20
f 21 	22 	23
f 21 	23 	24
f 25 	26 	27
f 25 	27 	28
f 29 	30 	31
f 29 	31 	32
f 33 	34 	35
f 33 	35 	36
f 37 	82 	38
f 81 	38 	82
f 40 	39 	42
f 40 	42 	41
f 44 	43 	46
f 44 	46 	45
f 52 	51 	48
f 52 	48 	47
f 50 	49 	54
f 50 	54 	53
f 56 	55 	58
f 56 	58 	57
f 60 	59 	62
f 60 	62 	61
f 64 	63 	66
f 64 	66 	65
f 68 	67 	70
f 68 	70 	69
f 72 	71 	74
f 72 	74 	73
f 76 	75 	78
f 76 	78 	77
f 80 	79 	83
f 80 	83 	84
f 108 	105 	90
f 103 	90 	105
f 97 	105 	108
f 110 	87 	109
f 87 	86 	109
f 91 	111 	112
f 91 	112 	93
f 113 	114 	115
f 113 	115 	116
f 87 	110 	111
f 87 	111 	91
f 109 	86 	112
f 93 	112 	86
f 96 	90 	103
f 100 	97 	96
f 100 	96 	101
f 105 	97 	100
f 96 	103 	101
f 82 	37 	178
f 82 	178 	175
f 40 	41 	179
f 40 	179 	180
f 44 	45 	181
f 44 	181 	182
f 52 	47 	183
f 52 	183 	184
f 50 	53 	185
f 50 	185 	186
f 56 	57 	187
f 56 	187 	188
f 60 	61 	1
f 60 	1 	2
f 64 	65 	4
f 64 	4 	3
f 68 	69 	17
f 68 	17 	20
f 72 	73 	21
f 72 	21 	24
f 76 	77 	28
f 76 	28 	27
f 80 	84 	36
f 80 	36 	35
f 199 	214 	38
f 199 	38 	81
f 217 	218 	42
f 217 	42 	39
f 143 	206 	144
f 206 	210 	144
f 219 	220 	46
f 219 	46 	43
f 204 	203 	144
f 204 	144 	210
f 221 	222 	48
f 221 	48 	51
f 54 	49 	224
f 223 	224 	49
f 146 	153 	145
f 154 	153 	146
f 153 	200 	145
f 225 	226 	58
f 225 	58 	55
f 154 	148 	147
f 154 	147 	201
f 227 	228 	62
f 227 	62 	59
f 201 	145 	200
f 229 	230 	66
f 229 	66 	63
f 5 	8 	70
f 5 	70 	67
f 149 	150 	151
f 149 	151 	152
f 9 	12 	74
f 9 	74 	71
f 201 	147 	145
f 13 	16 	78
f 13 	78 	75
f 146 	148 	154
f 83 	79 	32
f 29 	32 	79
f 143 	202 	206
f 204 	205 	202
f 204 	202 	203
f 205 	206 	202
f 175 	178 	214
f 175 	214 	199
f 217 	180 	179
f 217 	179 	218
f 219 	182 	181
f 219 	181 	220
f 221 	286 	271
f 221 	271 	222
f 223 	275 	276
f 223 	276 	224
f 225 	279 	281
f 225 	281 	226
f 227 	2 	228
f 1 	228 	2
f 3 	4 	229
f 230 	229 	4
f 183 	299 	325
f 183 	325 	184
f 185 	306 	304
f 185 	304 	186
f 187 	313 	308
f 187 	308 	188
# 146 faces

 #end of obj_0

